<?xml version="1.0" encoding="UTF-8"?><svg id="Layer_1" xmlns="http://www.w3.org/2000/svg" width="39.18" height="56.8" viewBox="0 0 39.18 56.8"><defs><style>.cls-1{fill:#263e9a;}.cls-2{fill:#fbd1c8;}</style></defs><path class="cls-2" d="M17.78,0C12.3.14,6.82.27,1.34.41c.52,2.33,1.04,4.66,1.55,7,1,4.5,2.1,9.21,5.15,13.16,2.98.52,6.01.75,8.24.51,3.5-2.24,4.53-6.81,5.25-10.91.57-3.26,1.15-6.52,1.72-9.79-2.29,0-4.58.01-5.48-.38Z"/><path class="cls-2" d="M20.53,7.06c2.13-1.28,4.51-2.16,6.96-2.57,1.24,1.68-.19,3.99-1.63,5.5-3.39,3.56-7.17,6.76-5.34-2.93Z"/><path class="cls-2" d="M17.78,0C12.3.14,6.82.27,1.34.41c.52,2.33,1.04,4.66,1.55,7,1,4.5,2.1,9.21,5.15,13.16,2.98.52,6.01.75,8.24.51,3.5-2.24,4.53-6.81,5.25-10.91.57-3.26,1.15-6.52,1.72-9.79-2.29,0-4.58.01-5.48-.38Z"/><path class="cls-1" d="M.09,24.25c-.23,2.22-.01,4.48.64,6.62,10.99-3.8,22.88-3.8,34.38-5.51,1.63-.24,3.58-.79,4-2.39.25-.97-.18-1.96-.72-3.03-13.08,1.67-26.17,3.34-38.3,4.3Z"/><path class="cls-1" d="M16.94,26.11c.49,9.09.35,18.22-.43,27.29.98-.3,2.04-.35,3.05-.15,1.08-9.45,1.59-18.96,1.54-28.47-1.73-.47-4.23-.18-4.15,1.33Z"/><path class="cls-1" d="M23.42,49.95c-3.32.5-6.64,1-9.96,1.5-2.6.39-5.58,1.04-6.78,3.38-.22.42-.34.99,0,1.32.15.15.37.21.58.27,2.08.53,4.27.42,6.41.2,4.98-.51,9.9-1.59,14.64-3.21,1.74-.6,3.64-1.43,4.33-3.14-3.78-.83-7.72-.55-9.22-.32Z"/></svg>